<?xml version="1.0" ?><!DOCTYPE svg  PUBLIC '-//W3C//DTD SVG 1.1//EN'  'http://www.w3.org/Graphics/SVG/1.1/DTD/svg11.dtd'><svg enable-background="new 0 0 512 512" id="Layer_1" version="1.1" viewBox="0 0 512 512" xml:space="preserve" xmlns="http://www.w3.org/2000/svg" xmlns:xlink="http://www.w3.org/1999/xlink"><g><path d="M256.8,507.9C120,507.4,7.8,396.7,8.5,255.7C9.1,116.9,120.5,4.8,259.9,6.2   C394.8,7.6,506.5,117.7,505.5,259C504.6,397.3,394,507.4,256.8,507.9z M257,25.9C132.2,25.6,29.5,127.1,28.1,254.1   c-1.5,131.2,103.2,233,226.5,234.1c126.6,1.2,230.7-101.4,231.3-229.2C486.5,129.3,384.4,25.9,257,25.9z" fill="#5CC3FE"/><path d="M257,82.3c4.3,9.8,8.9,18.1,14.7,25.8c12.8,17,29.8,29.4,46.7,41.8c15.8,11.5,31.7,22.8,45,37.2   c22.3,24.1,35.7,52.4,38.8,85.2c4.5,48.5-11.4,89.6-46.7,122.7c-23.3,21.8-51.3,34.2-83.2,37.3c-41.4,4-78.2-7.2-109.9-34   c-26.6-22.6-43.3-51.3-49.1-85.8c-7.6-44.9,3.5-85.1,32.8-120.2c14-16.8,31.7-29.3,49.2-42.1c17.1-12.5,34.2-24.9,47.1-42.1   C248.2,100.4,252.8,92,257,82.3z" fill="#5BC2FE"/></g></svg>